# xmcd CD database file
#
# Track frame offsets:
#	150
#	47100
#	85810
#	132869
#	172434
#	219756
#
# Disc length: 3608 seconds
#
# Revision: 0
# Processed by: cddbd v1.5.2PL0 Copyright (c) Steve Scherf et al.
# Submitted via: CDex 1.70beta2
#
DISCID=500e1606
DTITLE=CYTOKINE - Cubical another perspective has violated systematically
DYEAR=2007
DGENRE=東方アレンジ
TTITLE0=Welcome to their NOISY BLOODY cradle
TTITLE1=Return of the Outsider to that sweet home
TTITLE2=exaggeration - quickness - sincerity
TTITLE3=Noctiflorous girls
TTITLE4=Abandon all hope, ye who enter here
TTITLE5=Outstanding ingenious never-never land
EXTD=YEAR: 2007
EXTT0=
EXTT1=
EXTT2=
EXTT3=
EXTT4=
EXTT5=
PLAYORDER=
